<svg width="375" height="375" viewBox="0 0 375 375" fill="none" xmlns="http://www.w3.org/2000/svg">
<rect width="375" height="302" fill="#FFED62"/>
<g clip-path="url(#clip0)">
<path d="M85.8854 330.317C85.8523 340.615 85.8689 350.913 85.8689 361.203C85.8689 362.004 85.8689 362.796 85.8689 363.547C86.3318 363.687 86.5302 363.794 86.7203 363.803C89.1258 363.827 91.5314 363.852 93.9452 363.852C98.3098 363.86 98.3098 363.852 98.3677 359.619C98.4007 357.143 98.9546 356.558 101.401 356.549C106.494 356.533 111.586 356.45 116.669 356.591C118.678 356.64 119.257 356.013 119.207 354.041C119.1 349.841 118.157 348.397 124.25 348.685C124.39 348.694 124.572 348.743 124.655 348.677C125.134 348.273 125.928 347.877 125.977 347.398C126.25 345.145 126.308 342.975 127.011 340.673C128.061 337.199 127.945 333.337 128.102 329.632C128.259 326.002 128.135 322.354 128.135 318.715C128.127 310.34 128.143 301.964 128.085 293.589C128.077 292.887 127.697 291.658 127.325 291.584C125.192 291.188 124.985 289.768 125.043 288.06C125.068 287.26 125.052 286.459 125.052 285.444C111.949 285.444 99.1117 285.444 85.8854 285.444C85.8854 286.286 85.8854 287.095 85.8854 287.903C85.8854 298.68 85.8689 309.457 85.9102 320.234L85.8854 330.317ZM287.643 363.819C287.643 337.57 287.643 311.503 287.643 285.568C274.607 285.568 261.877 285.568 249.139 285.568C248.783 288.382 250.329 291.996 245.617 291.6C245.518 292.037 245.427 292.236 245.427 292.434C245.419 305.818 245.41 319.202 245.41 332.578C245.41 332.974 245.419 333.56 245.658 333.725C247.353 334.88 246.965 336.605 246.989 338.214C247.014 339.543 246.667 340.945 248.486 341.573C248.882 341.713 249.097 342.744 249.163 343.388C249.279 344.477 249.304 345.591 249.205 346.68C249.072 348.19 249.601 348.702 251.164 348.718C256.14 348.768 256.14 348.826 256.148 353.785C256.148 356.525 256.148 356.541 259 356.549C263.886 356.566 268.763 356.549 273.648 356.558C276.368 356.566 276.856 357.061 276.914 359.834C276.93 360.725 276.79 361.649 276.98 362.499C277.087 363.002 277.691 363.753 278.088 363.77C281.171 363.869 284.254 363.819 287.643 363.819ZM195.093 210.808C195.366 210.907 195.556 211.039 195.738 211.039C201.789 211.063 207.84 211.121 213.891 211.047C214.651 211.039 215.56 210.445 216.139 209.867C221.43 204.561 221.273 195.806 215.808 190.69C215.387 190.294 214.61 190.088 213.998 190.088C195.986 190.055 177.973 190.046 159.961 190.079C159.365 190.079 158.613 190.36 158.2 190.772C152.868 196.087 152.711 204.487 157.911 209.817C158.588 210.511 159.771 211.03 160.738 211.055C165.615 211.179 170.5 211.113 175.377 211.113C176.593 211.113 177.8 211.113 179.089 211.113C179.089 210.527 179.122 210.255 179.081 209.991C178.221 203.563 180.701 198.315 184.925 193.718C186.554 191.944 187.57 191.961 189.182 193.751C193.299 198.315 195.878 203.455 195.027 209.826C194.994 210.147 195.068 210.486 195.093 210.808ZM124.159 269.576C166.367 269.576 207.897 269.576 249.734 269.576C248.907 268.256 248.287 267.2 247.601 266.185C245.758 263.429 243.517 262.133 239.831 262.158C214.263 262.373 188.686 262.274 163.118 262.274C152.736 262.274 142.361 262.241 131.979 262.315C130.904 262.323 129.491 262.612 128.829 263.322C127.184 265.104 125.887 267.2 124.159 269.576ZM269.482 255.293C272.78 255.293 275.599 255.202 278.402 255.326C279.964 255.392 280.774 254.731 281.435 253.444C283.188 250.061 283.312 246.43 282.031 243.088C281.138 240.77 279.27 238.624 277.368 236.933C274.938 234.762 272.16 232.906 269.325 231.288C262.001 227.105 264.828 227.105 257.562 231.247C253.371 233.64 249.585 236.611 246.634 240.506C243.633 244.475 243.212 249.912 245.683 253.807C246.08 254.426 246.849 255.185 247.477 255.21C250.808 255.35 254.148 255.276 257.595 255.276C257.661 254.476 257.835 253.791 257.744 253.139C257.19 249.31 259.314 246.604 261.613 244.021C262.828 242.651 264.464 242.7 265.258 244.128C267.168 247.577 270.119 250.614 269.482 255.293ZM116.298 255.276C119.34 255.276 122.15 255.161 124.944 255.317C126.705 255.416 127.639 254.665 128.259 253.197C130.408 248.155 129.739 243.575 126.085 239.441C122.72 235.645 118.538 232.947 114.347 230.158C111.288 228.12 108.883 228.144 105.832 230.166C101.178 233.252 96.4912 236.206 93.1185 240.786C90.0599 244.937 90.0682 249.302 92.3497 253.75C92.6721 254.385 93.4905 255.161 94.1187 255.185C97.3261 255.334 100.542 255.251 103.931 255.251C103.666 251.059 105.13 247.676 107.651 244.697C109.486 242.527 110.643 242.494 112.47 244.607C115.033 247.569 116.595 250.919 116.298 255.276ZM242.831 277.25C205.666 277.25 168.458 277.25 131.301 277.25C130.4 280.733 131.119 282.218 134.98 282.457C136.616 282.556 138.27 282.399 139.915 282.399C161.366 282.391 182.817 282.399 204.269 282.399C215.883 282.399 227.497 282.424 239.103 282.375C242.683 282.366 243.641 281.013 242.831 277.25ZM121.695 266.498C121.522 266.3 121.348 266.102 121.175 265.904C120.976 265.855 120.778 265.772 120.58 265.772C111.858 265.756 103.137 265.772 94.4163 265.731C93.102 265.723 92.7961 266.317 92.8044 267.48C92.8457 270.971 92.8127 274.47 92.8127 277.968C92.8127 281.112 92.8127 281.129 95.8712 281.129C105.138 281.137 114.413 281.129 123.679 281.129C126.961 281.129 126.887 281.129 126.812 277.894C126.779 276.516 126.259 276.112 124.969 276.161C123.117 276.235 121.266 276.194 119.406 276.161C118.124 276.136 117 275.691 116.926 274.247C116.851 272.753 116.388 271.169 118.091 269.989C119.455 269.04 120.505 267.67 121.695 266.498ZM280.749 280.988C280.749 276.491 280.683 272.126 280.782 267.769C280.824 266.094 280.212 265.706 278.641 265.714C270.606 265.781 262.571 265.739 254.537 265.756C253.958 265.756 253.379 265.855 252.801 265.913C252.66 266.111 252.52 266.309 252.387 266.507C253.569 267.687 254.627 269.04 255.967 269.997C257.727 271.251 257.248 272.918 257.107 274.461C256.975 275.897 255.727 276.169 254.462 276.169C252.61 276.169 250.751 276.211 248.899 276.161C247.766 276.128 247.254 276.533 247.32 277.704C247.386 278.769 247.336 279.841 247.336 280.988C258.612 280.988 269.565 280.988 280.749 280.988ZM158.96 287.004C158.812 286.996 158.663 286.996 158.514 286.987C158.464 287.705 158.415 288.415 158.373 289.133C158.307 290.494 157.63 291.452 156.249 291.419C154.629 291.377 154.521 292.219 154.521 293.473C154.546 306.296 154.53 319.12 154.554 331.943C154.554 332.586 154.745 333.247 154.959 333.865C155.356 335.021 155.993 336.118 156.232 337.306C156.456 338.412 156.282 339.584 156.282 340.805C158.002 340.805 159.473 340.805 161.027 340.805C161.316 338.107 160.316 335.252 162.746 333.222C162.887 333.106 162.796 332.694 162.796 332.421C162.788 319.326 162.771 306.222 162.779 293.127C162.779 292.079 162.581 291.46 161.325 291.452C159.613 291.443 158.911 290.387 158.952 288.753C158.977 288.167 158.96 287.582 158.96 287.004ZM217.784 340.863C217.784 339.246 217.685 337.867 217.825 336.506C217.9 335.747 218.354 335.021 218.644 334.286C218.941 333.519 219.495 332.751 219.495 331.984C219.545 319.293 219.528 306.602 219.52 293.902C219.52 293.168 219.454 292.434 219.404 291.419C215.436 292.178 215.709 289.364 215.42 286.872C215.106 287.689 215.122 288.39 215.106 289.092C215.081 290.453 214.428 291.435 213.039 291.419C211.452 291.41 211.303 292.202 211.303 293.473C211.328 306.371 211.312 319.268 211.336 332.174C211.336 332.751 211.551 333.337 211.741 333.89C212.138 335.054 212.742 336.168 212.973 337.356C213.188 338.453 213.014 339.625 213.014 340.871C214.75 340.863 216.164 340.863 217.784 340.863ZM123.63 355.51C124.779 355.51 126.002 355.51 127.217 355.51C166.086 355.51 204.955 355.51 243.823 355.51C246.791 355.51 249.899 355.534 250.147 355.526C251.172 355.518 252.081 355.51 251.99 354.033C251.9 352.44 250.767 352.844 249.891 352.828C247.411 352.787 244.939 352.811 242.459 352.811C203.525 352.811 164.59 352.811 125.647 352.811C123.175 352.82 123.142 352.869 123.63 355.51ZM198.523 340.863C198.523 339.328 198.432 337.892 198.556 336.481C198.623 335.722 199.061 334.996 199.342 334.261C199.631 333.494 200.193 332.735 200.201 331.968C200.251 319.54 200.243 307.113 200.235 294.686C200.235 293.688 200.235 292.681 200.235 291.93C198.639 291.394 197.44 290.998 196.49 290.676C195.2 291.072 194.06 291.419 192.787 291.815C192.737 292.087 192.613 292.483 192.613 292.871C192.605 306.049 192.596 319.235 192.621 332.413C192.621 332.908 192.877 333.412 193.059 333.898C193.481 335.054 194.084 336.168 194.316 337.356C194.531 338.453 194.365 339.625 194.365 340.855C195.845 340.863 197.06 340.863 198.523 340.863ZM174.104 291.823C174.047 291.98 173.964 292.103 173.964 292.236C173.947 305.686 173.931 319.128 173.939 332.578C173.939 333.015 174.162 333.461 174.319 333.89C174.741 335.037 175.344 336.143 175.584 337.331C175.799 338.429 175.634 339.609 175.634 340.805C177.18 340.805 178.436 340.805 179.775 340.805C179.775 339.254 179.676 337.876 179.817 336.522C179.891 335.763 180.337 335.037 180.627 334.303C180.924 333.535 181.478 332.768 181.478 332.001C181.528 319.582 181.511 307.171 181.511 294.752C181.511 293.746 181.511 292.739 181.511 291.914C179.99 291.419 178.792 291.031 177.775 290.701C176.543 291.064 175.402 291.419 174.104 291.823ZM223.207 258.007C223.207 250.746 223.207 243.732 223.207 236.743C217.883 236.743 212.775 236.743 207.658 236.743C207.658 243.913 207.658 250.927 207.658 258.007C212.923 258.007 217.991 258.007 223.207 258.007ZM166.524 258.016C166.524 250.795 166.524 243.814 166.524 236.743C161.217 236.743 156.042 236.743 150.884 236.743C150.884 243.922 150.884 250.944 150.884 258.016C156.158 258.016 161.242 258.016 166.524 258.016ZM244.89 345.203C206.641 345.203 168.516 345.203 130.301 345.203C130.301 346.053 130.301 346.771 130.301 347.613C168.549 347.613 206.674 347.613 244.89 347.613C244.89 346.763 244.89 346.037 244.89 345.203ZM213.502 221.428C212.684 221.428 211.94 221.428 211.196 221.428C200.334 221.428 189.48 221.428 178.618 221.428C173.121 221.428 167.624 221.477 162.126 221.395C160.63 221.37 160.258 221.931 160.275 223.309C160.291 225.438 161.862 224.86 162.928 224.86C178.94 224.902 194.952 224.893 210.964 224.893C214.064 224.893 214.064 224.893 213.502 221.428ZM203.12 257.999C203.12 250.754 203.12 243.748 203.12 236.792C198.457 236.792 193.993 236.792 189.207 236.792C195.225 242.874 198.755 249.426 195.713 257.999C198.383 257.999 200.689 257.999 203.12 257.999ZM170.897 257.917C173.468 257.917 175.807 257.917 178.329 257.917C175.402 249.285 178.924 242.725 184.834 236.726C179.99 236.726 175.501 236.726 170.889 236.726C170.897 243.823 170.897 250.787 170.897 257.917ZM141.039 335.037C143.345 334.245 143.527 333.04 143.527 331.538C143.477 319.408 143.502 307.287 143.494 295.157C143.494 294.331 143.618 293.473 143.411 292.706C143.279 292.227 142.692 291.633 142.213 291.526C140.485 291.122 139.865 291.806 139.873 293.688C139.956 306.362 139.89 319.037 139.964 331.712C139.981 332.809 140.667 333.907 141.039 335.037ZM234.209 291.716C230.671 291.221 230.663 291.229 230.663 294.298C230.663 306.783 230.688 319.268 230.63 331.753C230.622 333.329 231.068 334.352 233.118 335.07C233.499 333.89 234.152 332.784 234.16 331.679C234.234 319.606 234.209 307.534 234.209 295.462C234.209 294.232 234.209 293.011 234.209 291.716ZM209.683 185.846C209.782 185.59 209.873 185.326 209.972 185.071C208.154 184.254 206.352 182.768 204.525 182.735C192.836 182.521 181.147 182.612 169.459 182.636C167.169 182.645 165.822 184.287 164.416 185.846C179.511 185.846 194.597 185.846 209.683 185.846ZM187.033 240.662C183.28 244.565 180.693 248.551 181.569 254.022C181.792 255.4 182.305 256.093 183.809 256.027C185.934 255.936 188.075 255.903 190.191 256.044C191.852 256.151 192.315 255.334 192.539 253.923C193.373 248.526 190.819 244.574 187.033 240.662ZM135.616 333.725C135.616 320.06 135.616 306.593 135.616 293.102C134.674 293.102 133.905 293.102 133.169 293.102C133.169 306.742 133.169 320.201 133.169 333.725C134.037 333.725 134.715 333.725 135.616 333.725ZM169.616 333.725C169.616 320.077 169.616 306.602 169.616 293.102C168.682 293.102 167.905 293.102 167.144 293.102C167.144 306.734 167.144 320.192 167.144 333.725C168.02 333.725 168.698 333.725 169.616 333.725ZM240.947 333.667C240.947 320.044 240.947 306.577 240.947 293.028C240.054 293.028 239.318 293.028 238.458 293.028C238.458 306.602 238.458 320.069 238.458 333.667C239.302 333.667 240.029 333.667 240.947 333.667ZM150.264 333.742C150.264 320.069 150.264 306.602 150.264 293.11C149.322 293.11 148.553 293.11 147.834 293.11C147.834 306.759 147.834 320.217 147.834 333.742C148.71 333.742 149.38 333.742 150.264 333.742ZM206.98 333.75C206.98 320.085 206.98 306.602 206.98 293.102C206.054 293.102 205.277 293.102 204.533 293.102C204.533 306.75 204.533 320.225 204.533 333.75C205.401 333.75 206.079 333.75 206.98 333.75ZM223.91 293.019C223.91 306.75 223.91 320.225 223.91 333.684C224.844 333.684 225.571 333.684 226.356 333.684C226.356 320.069 226.356 306.593 226.356 293.019C225.455 293.019 224.72 293.019 223.91 293.019ZM185.735 322.94C185.777 325.985 185.702 329.038 185.661 332.091C185.644 333.057 185.702 333.808 187.041 333.824C188.389 333.841 188.438 333.081 188.43 332.116C188.389 327.602 188.331 323.08 188.331 318.567C188.339 310.893 188.389 303.21 188.405 295.536C188.405 294.736 188.323 293.935 188.281 293.118C187.306 293.118 186.537 293.118 185.727 293.118C185.727 301.114 185.719 308.929 185.744 316.735L185.735 322.94ZM186.868 232.518C194.018 232.427 201.169 232.485 208.327 232.485C213.965 232.485 219.611 232.501 225.249 232.46C225.885 232.46 226.522 232.171 227.158 232.023C224.563 230.727 148.189 230.983 146.528 232.105C147.743 232.27 148.528 232.477 149.322 232.477C160.052 232.468 170.781 232.46 181.511 232.386C182.867 232.369 185.793 232.526 186.868 232.518ZM217.875 215.783C217.768 215.627 217.652 215.47 217.544 215.313C197.168 215.313 176.791 215.313 156.406 215.313C156.199 217.326 157.605 216.881 158.597 216.881C177.502 216.897 196.399 216.889 215.304 216.889C215.717 216.889 216.197 217.013 216.528 216.848C217.032 216.609 217.429 216.155 217.875 215.783ZM183.379 210.568C185.909 210.568 188.29 210.568 190.728 210.568C191.712 205.634 190.34 201.516 186.984 197.663C183.892 201.557 182.28 205.56 183.379 210.568ZM248.494 259.625C248.386 259.922 248.279 260.227 248.18 260.524C249.122 260.887 250.064 261.564 251.007 261.572C260.257 261.655 269.507 261.622 278.757 261.622C279.17 261.622 279.65 261.729 279.972 261.547C280.303 261.366 280.625 260.92 280.667 260.549C280.7 260.293 280.311 259.815 280.022 259.732C279.509 259.583 278.939 259.649 278.385 259.649C272.243 259.641 266.109 259.633 259.968 259.625C256.148 259.616 252.321 259.625 248.494 259.625ZM125.308 260.425C125.192 260.169 125.076 259.905 124.961 259.649C114.669 259.649 104.377 259.641 94.0857 259.691C93.6724 259.691 93.2673 260.318 92.854 260.648C93.35 260.97 93.8377 261.572 94.3337 261.572C103.948 261.63 113.561 261.638 123.175 261.564C123.886 261.556 124.597 260.821 125.308 260.425ZM194.217 168.435C189.331 168.435 184.636 168.435 179.75 168.435C179.75 169.268 179.783 169.945 179.742 170.614C179.676 171.719 180.073 172.231 181.271 172.223C185.19 172.181 189.108 172.264 193.018 172.165C193.473 172.157 194.159 171.389 194.299 170.861C194.489 170.135 194.266 169.285 194.217 168.435ZM238.243 252.85C238.062 248.543 239.07 249.112 234.457 249.03C233.432 249.013 232.945 249.335 232.978 250.424C233.027 251.992 232.903 253.568 233.052 255.128C233.093 255.573 233.755 256.25 234.209 256.324C238.07 256.91 238.26 256.72 238.243 252.85ZM140.923 248.765C139.055 249.079 136.393 248.997 136.195 249.657C135.616 251.588 135.624 253.931 136.236 255.854C136.434 256.489 139.154 256.341 140.923 256.572C140.923 253.89 140.923 251.604 140.923 248.765ZM176.394 177.677C176.452 177.9 176.51 178.131 176.568 178.354C183.569 178.354 190.563 178.354 197.564 178.354C197.606 178.106 197.647 177.859 197.68 177.611C195.531 177.182 193.406 176.53 191.241 176.373C188.306 176.159 185.33 176.15 182.396 176.373C180.379 176.53 178.395 177.223 176.394 177.677ZM265.109 255.623C266.366 253.032 265.721 250.944 263.952 249.17C263.687 248.906 262.489 248.997 262.431 249.162C261.794 251.068 260.505 252.924 261.703 255.136C262.853 255.301 264.026 255.466 265.109 255.623ZM110.767 248.675C110.478 248.675 110.189 248.683 109.899 248.683C108.494 250.556 107.775 252.611 108.304 255.136C109.602 255.136 110.792 255.136 112.619 255.136C111.949 252.801 111.354 250.738 110.767 248.675ZM240.087 363.324C241.6 363.324 243.121 363.324 244.633 363.341C244.633 363.332 244.633 363.332 244.633 363.324H240.087ZM239.963 367.838C243.451 367.829 245.708 367.821 246.444 367.813C244.278 367.813 242.12 367.821 239.963 367.838Z" fill="black"/>
<path d="M275.029 312.006C277.087 311.8 278.211 309.836 277.046 308.153C275.806 306.362 274.558 304.324 272.797 303.226C270.929 302.071 270.788 300.776 270.904 299.035C271.069 296.666 270.639 294.405 268.656 292.937C267.192 291.847 266.225 290.799 266.275 288.827C266.291 288.225 265.159 287.144 264.489 287.094C263.828 287.045 262.439 288.093 262.489 288.53C262.77 290.931 261.141 291.913 259.736 293.3C258.794 294.224 258.314 295.75 257.975 297.095C257.686 298.267 257.926 299.554 257.827 300.784C257.777 301.337 257.595 301.997 257.24 302.393C255.934 303.837 254.412 305.083 253.189 306.585C250.197 310.24 250.635 311.387 255.462 312.303C255.462 314.218 255.462 316.19 255.454 318.17C255.454 319.491 255.81 320.943 253.751 321.281C253.305 321.347 252.85 322.412 252.726 323.08C252.544 324.012 252.668 324.994 252.668 325.952C252.693 328.691 253.214 329.244 255.909 329.252C260.993 329.269 266.076 329.261 271.16 329.261C276.07 329.261 276.153 329.162 276.095 324.359C276.07 322.709 276.029 321.133 273.888 320.786C273.648 320.745 273.309 320.324 273.301 320.076C273.26 317.436 273.276 314.795 273.276 312.13C274.078 312.072 274.549 312.056 275.029 312.006ZM275.029 312.006C277.087 311.8 278.211 309.836 277.046 308.153C275.806 306.362 274.558 304.324 272.797 303.226C270.929 302.071 270.788 300.776 270.904 299.035C271.069 296.666 270.639 294.405 268.656 292.937C267.192 291.847 266.225 290.799 266.275 288.827C266.291 288.225 265.159 287.144 264.489 287.094C263.828 287.045 262.439 288.093 262.489 288.53C262.77 290.931 261.141 291.913 259.736 293.3C258.794 294.224 258.314 295.75 257.975 297.095C257.686 298.267 257.926 299.554 257.827 300.784C257.777 301.337 257.595 301.997 257.24 302.393C255.934 303.837 254.412 305.083 253.189 306.585C250.197 310.24 250.635 311.387 255.462 312.303C255.462 314.218 255.462 316.19 255.454 318.17C255.454 319.491 255.81 320.943 253.751 321.281C253.305 321.347 252.85 322.412 252.726 323.08C252.544 324.012 252.668 324.994 252.668 325.952C252.693 328.691 253.214 329.244 255.909 329.252C260.993 329.269 266.076 329.261 271.16 329.261C276.07 329.261 276.153 329.162 276.095 324.359C276.07 322.709 276.029 321.133 273.888 320.786C273.648 320.745 273.309 320.324 273.301 320.076C273.26 317.436 273.276 314.795 273.276 312.13C274.078 312.072 274.549 312.056 275.029 312.006ZM326.446 285.881C325.975 285.551 325.115 285.741 324.437 285.741C314.6 285.733 304.755 285.733 294.918 285.733H292.008C291.934 285.089 291.876 284.693 291.851 284.297C291.669 281.5 291.289 281.137 288.487 281.12C287.346 281.112 286.205 281.12 285.139 281.12C285.006 280.567 284.924 280.369 284.924 280.179C284.866 272.282 284.816 264.386 284.792 256.497C284.792 256.109 284.94 255.688 285.114 255.325C287.693 249.986 287.197 244.375 286.445 238.789C286.065 235.942 284.816 235.529 282.436 237.171C281.179 235.76 280.121 234.069 278.617 232.971C274.806 230.19 270.763 227.715 266.886 225.008C266.233 224.546 265.663 223.589 265.564 222.805C265.357 221.039 265.688 219.199 265.374 217.475C265.217 216.658 264.076 216.022 263.39 215.304C262.72 216.031 262.001 216.724 261.422 217.516C261.224 217.788 261.315 218.333 261.389 218.729C262.133 222.747 260.91 225.627 256.744 226.849C256.553 226.898 256.388 227.055 256.223 227.179C252.057 230.265 247.89 233.351 243.6 236.536C241.285 235.175 239.996 235.892 239.963 238.97C239.946 240.414 239.905 241.858 239.979 243.294C240.037 244.524 239.591 245.027 238.318 244.986C236.259 244.92 234.193 244.961 232.126 244.969C229.365 244.986 228.836 245.497 228.828 248.187C228.811 250.869 228.836 253.543 228.811 256.225C228.803 256.827 228.654 257.429 228.53 258.362C227.447 256.943 227.1 240.431 227.803 236.792C231.308 236.214 231.308 236.214 231.308 232.435C231.308 231.75 231.316 231.065 231.308 230.38C231.267 227.377 230.779 226.89 227.828 226.873C225.356 226.865 222.868 226.758 220.405 226.906C218.429 227.014 217.586 226.353 217.916 224.365C217.974 224.026 217.949 223.68 217.925 223.333C217.842 222.087 217.908 221.114 219.594 220.899C220.231 220.825 220.958 219.826 221.256 219.092C221.735 217.895 221.835 216.559 222.207 215.313C222.744 213.489 222.942 211.814 221.322 211.022C222.289 207.977 223.579 205.246 223.959 202.39C224.43 198.776 224.348 195.154 226.67 192.01C227.001 191.564 226.513 189.864 225.984 189.617C225.29 189.287 224.116 189.658 223.281 190.021C222.744 190.252 222.446 191.011 221.934 191.68C216.949 184.583 210.162 179.913 202.756 176.191C199.532 174.574 198.077 172.8 198.408 169.045C198.813 164.466 198.507 164.433 193.927 164.111C193.803 164.103 193.696 163.987 193.82 164.061C193.208 162.749 192.977 161.297 192.125 160.604C190.249 159.061 191.034 157.427 191.489 155.768C191.753 154.786 192.224 153.862 192.596 152.913C192.91 152.105 193.026 151.098 193.58 150.512C194.481 149.555 194.341 148.639 193.555 148.036C192.588 147.302 191.348 146.931 190.224 146.403C190.05 146.7 189.877 147.005 189.703 147.302C189.587 144.926 188.066 144.868 186.587 145.074C185.752 145.198 184.975 145.784 184.173 146.155C184.222 146.477 184.272 146.79 184.322 147.104C182.263 145.52 181.354 147.079 180.379 148.185C179.246 149.48 180.47 150.231 181.18 151.114C181.395 151.37 181.404 151.799 181.495 152.154C181.726 153.111 182.057 154.06 182.164 155.042C182.346 156.668 182.735 158.392 182.396 159.935C182.081 161.338 180.908 162.551 179.94 164.136C179.916 164.136 179.445 164.169 178.965 164.177C176.08 164.235 175.642 164.664 175.625 167.552C175.617 169.202 175.733 170.861 175.576 172.495C175.51 173.163 175.014 174.079 174.452 174.376C166.036 178.824 157.853 183.552 151.992 191.861C151.752 191.424 151.62 191.185 151.479 190.945C150.686 189.576 149.603 188.478 148.016 189.559C146.371 190.681 147.404 192.002 148.065 193.338C148.817 194.848 149.694 196.499 149.743 198.116C149.892 202.671 150.62 206.978 153.323 210.881C150.81 211.995 151.446 213.885 152.017 215.676C152.562 217.392 153.248 219.075 153.926 220.751C153.992 220.916 154.414 221.006 154.678 221.006C155.877 221.015 156.175 221.691 156.117 222.747C156.067 223.639 156.084 224.538 156.133 225.429C156.191 226.477 155.753 226.906 154.687 226.882C152.554 226.84 150.421 226.873 148.288 226.873C142.733 226.873 142.733 226.873 142.742 232.427C142.742 236.173 142.766 236.206 146.47 236.825C146.47 243.633 146.478 250.481 146.462 257.33C146.453 257.702 146.247 258.073 146.139 258.436C145.883 258.271 145.635 258.106 145.379 257.941C145.337 257.289 145.263 256.637 145.263 255.994C145.246 253.378 145.271 250.77 145.246 248.163C145.213 245.588 144.61 244.994 142.08 244.978C139.352 244.961 136.616 244.969 133.616 244.969C133.616 242.931 133.624 241.174 133.607 239.408C133.574 235.876 132.45 235.166 129.301 236.792C124.82 231.791 119.298 228.128 113.404 224.934C112.842 224.629 112.346 223.713 112.288 223.036C112.123 221.262 112.247 219.472 112.206 217.689C112.173 216.344 111.495 215.362 110.114 215.346C108.692 215.321 108.105 216.328 108.097 217.681C108.089 219.463 108.18 221.254 108.039 223.036C107.99 223.663 107.576 224.563 107.064 224.827C101.046 227.946 95.5736 231.8 90.7543 236.371C89.8119 237.072 88.1338 238.921 87.6627 239.688C87.3568 240.175 86.6542 240.621 86.6707 241.066C86.8443 245.885 85.8937 250.861 88.4645 255.391C88.6877 255.779 88.8117 256.291 88.8117 256.736C88.7869 264.014 88.729 271.284 88.6712 278.562C88.6712 279.362 88.5968 280.155 88.5472 281.178C86.6872 281.178 85.0091 280.955 83.4137 281.236C80.9421 281.673 82.1572 284.033 81.4959 285.733H49.4223C48.8106 285.733 48.0335 285.551 47.6119 285.848C46.9093 286.343 46.0083 287.16 46 287.845C46 288.505 46.9258 289.355 47.645 289.768C48.2319 290.098 49.1164 289.916 49.8687 289.916C59.6396 289.925 69.4104 289.925 79.1813 289.933C79.9749 289.933 80.7767 290.007 81.7687 290.057V294.166C81.7687 303.086 81.8514 312.014 81.7191 320.943L81.777 333.386C81.7604 337.372 81.7687 341.349 81.7687 345.335V349.098C74.7175 349.098 67.9886 349.089 61.2515 349.098C59.6313 349.106 57.5399 348.743 57.5234 351.152C57.5068 353.595 59.6313 353.207 61.235 353.215C67.4265 353.24 73.618 353.199 79.8096 353.273C80.4461 353.281 81.6117 353.851 81.6282 354.197C81.7687 357.325 81.7108 360.469 81.7108 363.736C80.8429 363.786 80.1733 363.843 79.5037 363.852C76.5443 363.86 73.585 363.868 70.6256 363.852C68.7574 363.843 67.8233 364.693 67.8646 366.6C67.906 368.316 67.8646 370.032 67.8729 371.749C67.8894 374.43 68.4433 374.992 71.1629 374.992C119.869 374.992 168.574 375 217.28 374.95C217.801 374.95 223.711 374.909 228.886 374.901C228.993 374.942 229.093 374.959 229.192 374.959C231.705 374.959 234.209 374.967 236.722 374.967C260.348 375 283.99 374.983 307.615 375C309.549 375.008 310.368 374.067 310.359 372.227C310.343 370.371 310.393 368.522 310.335 366.666C310.277 364.561 309.566 363.877 307.408 363.86C303.077 363.835 298.745 363.86 294.414 363.843C293.612 363.843 292.81 363.769 291.843 363.72C291.843 360.749 291.942 358.001 291.81 355.27C291.735 353.603 292.347 353.182 293.942 353.199C300.481 353.273 307.012 353.224 313.55 353.232C315.013 353.232 316.518 353.083 316.518 351.218C316.518 349.271 315.03 349.073 313.443 349.081C307.458 349.114 301.473 349.098 295.488 349.098H291.975V289.925H294.521C304.424 289.925 314.336 289.933 324.239 289.925C324.925 289.925 325.743 290.106 326.272 289.809C327 289.388 327.983 288.596 328 287.944C328.025 287.251 327.149 286.368 326.446 285.881ZM245.435 292.433C245.435 292.243 245.518 292.045 245.617 291.608C250.329 292.004 248.791 288.382 249.139 285.576H287.643V363.819C284.254 363.819 281.171 363.868 278.096 363.761C277.699 363.744 277.104 362.985 276.988 362.49C276.806 361.64 276.947 360.716 276.93 359.825C276.864 357.052 276.376 356.557 273.657 356.549C268.779 356.541 263.894 356.557 259.017 356.541C256.165 356.532 256.165 356.516 256.157 353.776C256.157 348.825 256.157 348.759 251.172 348.718C249.61 348.702 249.081 348.19 249.213 346.68C249.312 345.591 249.287 344.477 249.172 343.396C249.097 342.752 248.891 341.721 248.485 341.58C246.675 340.945 247.014 339.542 246.998 338.214C246.973 336.605 247.361 334.88 245.667 333.725C245.427 333.568 245.419 332.974 245.419 332.586C245.41 319.202 245.419 305.817 245.435 292.433ZM102.881 360.716H272.574V363.489C263.183 363.489 253.925 363.365 244.633 363.34C243.121 363.324 241.6 363.324 240.087 363.324H102.674C102.674 362.441 102.931 360.889 102.881 360.716ZM293.546 368.002C297.191 368.002 300.845 368.019 304.49 367.994C305.474 367.994 306.21 368.052 306.243 369.372C306.276 370.783 305.532 370.956 304.432 370.882C303.879 370.849 303.333 370.882 302.779 370.882H231.473C181.776 370.874 121.241 370.791 72.1136 370.791V367.92C117.893 367.92 213.61 367.895 239.905 367.837H239.963C242.12 367.821 244.278 367.813 246.444 367.813H246.551C262.224 367.78 277.864 368.002 293.546 368.002ZM255.462 312.303C255.462 314.218 255.462 316.19 255.454 318.17C255.454 319.491 255.81 320.943 253.751 321.281C253.305 321.347 252.85 322.412 252.726 323.08C252.544 324.012 252.668 324.994 252.668 325.952C252.693 328.691 253.214 329.244 255.909 329.252C260.993 329.269 266.076 329.261 271.16 329.261C276.07 329.261 276.153 329.162 276.095 324.359C276.07 322.709 276.029 321.133 273.888 320.786C273.648 320.745 273.309 320.324 273.301 320.076C273.26 317.436 273.276 314.795 273.276 312.13C274.078 312.072 274.549 312.056 275.029 312.006C277.087 311.8 278.211 309.836 277.046 308.153C275.806 306.362 274.558 304.324 272.797 303.226C270.929 302.071 270.788 300.776 270.904 299.035C271.069 296.666 270.639 294.405 268.656 292.937C267.192 291.847 266.225 290.799 266.275 288.827C266.291 288.225 265.159 287.144 264.489 287.094C263.828 287.045 262.439 288.093 262.489 288.53C262.77 290.931 261.141 291.913 259.736 293.3C258.794 294.224 258.314 295.75 257.975 297.095C257.686 298.267 257.926 299.554 257.827 300.784C257.777 301.337 257.595 301.997 257.24 302.393C255.934 303.837 254.412 305.083 253.189 306.585C250.197 310.24 250.635 311.387 255.462 312.303Z" fill="#404040"/>
<path d="M249.139 285.576C248.791 288.382 250.329 292.004 245.617 291.608C245.518 292.046 245.435 292.244 245.435 292.433C245.419 305.818 245.411 319.202 245.419 332.586C245.419 332.974 245.427 333.568 245.667 333.725C247.361 334.88 246.973 336.605 246.998 338.214C247.014 339.542 246.675 340.945 248.486 341.581C248.891 341.721 249.097 342.752 249.172 343.396C249.287 344.477 249.312 345.591 249.213 346.68C249.081 348.19 249.61 348.702 251.172 348.718C256.157 348.76 256.157 348.826 256.157 353.777C256.165 356.516 256.165 356.533 259.017 356.541C263.894 356.557 268.78 356.541 273.657 356.549C276.376 356.557 276.864 357.053 276.93 359.825C276.947 360.716 276.806 361.64 276.988 362.49C277.104 362.986 277.699 363.745 278.096 363.761C281.171 363.868 284.254 363.819 287.644 363.819V285.576H249.139ZM275.029 312.006C274.55 312.056 274.078 312.072 273.277 312.13C273.277 314.795 273.26 317.436 273.301 320.077C273.31 320.324 273.649 320.745 273.888 320.786C276.029 321.133 276.071 322.709 276.095 324.359C276.153 329.162 276.071 329.261 271.16 329.261C266.077 329.261 260.993 329.269 255.909 329.252C253.214 329.244 252.693 328.691 252.668 325.952C252.668 324.995 252.544 324.013 252.726 323.08C252.85 322.412 253.305 321.347 253.751 321.281C255.81 320.943 255.454 319.491 255.454 318.17C255.462 316.19 255.462 314.218 255.462 312.303C250.635 311.388 250.197 310.241 253.189 306.585C254.413 305.083 255.934 303.837 257.24 302.393C257.595 301.997 257.777 301.337 257.827 300.784C257.926 299.555 257.686 298.267 257.975 297.096C258.314 295.751 258.794 294.224 259.736 293.3C261.141 291.913 262.77 290.932 262.489 288.53C262.439 288.093 263.828 287.045 264.489 287.094C265.159 287.144 266.291 288.225 266.275 288.827C266.225 290.8 267.192 291.847 268.656 292.937C270.64 294.406 271.069 296.666 270.904 299.035C270.788 300.776 270.929 302.071 272.797 303.227C274.558 304.324 275.806 306.362 277.046 308.153C278.212 309.836 277.087 311.8 275.029 312.006Z" fill="white"/>
<path d="M85.8936 320.242C85.8523 309.465 85.8688 298.688 85.8688 287.912C85.8688 287.103 85.8688 286.303 85.8688 285.453C99.0951 285.453 111.933 285.453 125.035 285.453C125.035 286.468 125.06 287.268 125.027 288.068C124.969 289.768 125.176 291.196 127.308 291.592C127.689 291.658 128.069 292.896 128.069 293.597C128.127 301.973 128.118 310.348 128.118 318.724C128.118 322.363 128.242 326.002 128.085 329.641C127.928 333.346 128.052 337.207 126.994 340.681C126.3 342.984 126.234 345.154 125.961 347.406C125.903 347.885 125.109 348.273 124.638 348.686C124.556 348.752 124.374 348.702 124.233 348.694C118.141 348.405 119.083 349.849 119.191 354.049C119.24 356.021 118.662 356.648 116.653 356.599C111.569 356.467 106.477 356.541 101.385 356.558C98.938 356.566 98.3924 357.152 98.3511 359.627C98.2932 363.86 98.2932 363.869 93.9286 363.86C91.523 363.86 89.1175 363.836 86.7037 363.811C86.5136 363.811 86.3235 363.704 85.8523 363.555C85.8523 362.812 85.8523 362.012 85.8523 361.212C85.8523 350.913 85.8357 340.615 85.8688 330.325L85.8936 320.242ZM118.174 312.122C118.877 312.073 119.356 312.056 119.827 312.007C121.844 311.809 123.01 310.026 121.927 308.359C120.679 306.428 119.282 304.382 117.438 303.12C115.884 302.047 115.628 300.999 115.727 299.464C115.892 296.972 115.57 294.563 113.454 292.953C112.015 291.864 110.99 290.841 111.09 288.844C111.123 288.25 109.974 287.161 109.304 287.103C108.651 287.045 107.262 288.093 107.312 288.539C107.576 290.94 105.882 291.872 104.551 293.308C103.526 294.406 103.113 296.172 102.699 297.706C102.426 298.73 102.691 299.893 102.608 300.982C102.567 301.469 102.377 302.055 102.054 302.402C100.732 303.821 99.2108 305.075 97.9874 306.569C94.9949 310.257 95.4496 311.446 100.261 312.279C100.261 314.4 100.236 316.57 100.269 318.748C100.294 319.912 100.277 320.819 98.7644 321.183C98.194 321.323 97.6567 322.478 97.5162 323.254C97.3012 324.384 97.4666 325.572 97.4583 326.744C97.45 328.461 98.3676 329.261 100.013 329.269C106.13 329.286 112.247 329.319 118.364 329.22C119.116 329.211 120.174 328.675 120.555 328.056C122.001 325.713 120.621 321.579 118.157 320.498C118.174 317.766 118.174 315.043 118.174 312.122Z" fill="white"/>
<path d="M195.093 210.807C195.076 210.486 194.994 210.147 195.043 209.834C195.886 203.463 193.315 198.322 189.199 193.759C187.579 191.969 186.57 191.952 184.942 193.726C180.709 198.322 178.238 203.562 179.097 209.999C179.13 210.263 179.106 210.535 179.106 211.121C177.816 211.121 176.609 211.121 175.394 211.121C170.508 211.121 165.631 211.187 160.754 211.063C159.787 211.038 158.605 210.519 157.927 209.825C152.727 204.495 152.884 196.095 158.216 190.78C158.63 190.368 159.382 190.087 159.977 190.087C177.99 190.054 196.002 190.054 214.015 190.096C214.626 190.096 215.395 190.302 215.825 190.698C221.289 195.814 221.446 204.577 216.156 209.875C215.577 210.453 214.668 211.047 213.907 211.055C207.856 211.137 201.805 211.08 195.754 211.047C195.547 211.038 195.366 210.906 195.093 210.807Z" fill="white"/>
<path d="M124.159 269.576C125.886 267.2 127.184 265.104 128.829 263.321C129.482 262.612 130.904 262.323 131.979 262.315C142.361 262.24 152.736 262.273 163.118 262.273C188.694 262.273 214.262 262.372 239.83 262.158C243.517 262.125 245.749 263.429 247.601 266.185C248.279 267.2 248.907 268.256 249.734 269.576C207.897 269.576 166.367 269.576 124.159 269.576Z" fill="white"/>
<path d="M269.482 255.292C270.127 250.614 267.167 247.577 265.25 244.128C264.456 242.7 262.819 242.659 261.604 244.02C259.306 246.603 257.182 249.31 257.735 253.139C257.826 253.791 257.653 254.475 257.587 255.276C254.131 255.276 250.792 255.35 247.468 255.21C246.84 255.185 246.063 254.426 245.675 253.807C243.203 249.912 243.633 244.474 246.625 240.505C249.576 236.602 253.362 233.632 257.553 231.247C264.82 227.104 261.993 227.096 269.317 231.288C272.152 232.914 274.938 234.762 277.36 236.932C279.261 238.632 281.129 240.769 282.022 243.088C283.303 246.43 283.179 250.061 281.427 253.444C280.757 254.731 279.947 255.4 278.393 255.325C275.591 255.21 272.78 255.292 269.482 255.292Z" fill="white"/>
<path d="M116.297 255.276C116.603 250.919 115.041 247.569 112.47 244.615C110.635 242.502 109.486 242.535 107.651 244.705C105.13 247.684 103.666 251.067 103.931 255.259C100.542 255.259 97.326 255.334 94.1187 255.193C93.4987 255.168 92.6803 254.393 92.3496 253.757C90.0764 249.31 90.0599 244.945 93.1184 240.794C96.4911 236.223 101.178 233.26 105.832 230.174C108.891 228.152 111.288 228.128 114.347 230.166C118.529 232.955 122.72 235.653 126.085 239.449C129.739 243.575 130.408 248.163 128.259 253.205C127.631 254.665 126.697 255.424 124.944 255.325C122.15 255.16 119.339 255.276 116.297 255.276Z" fill="white"/>
<path d="M242.831 277.25C243.641 281.005 242.682 282.366 239.111 282.374C227.497 282.424 215.883 282.399 204.277 282.399C182.825 282.399 161.374 282.399 139.923 282.399C138.278 282.399 136.624 282.564 134.988 282.457C131.127 282.218 130.416 280.724 131.309 277.25C168.458 277.25 205.665 277.25 242.831 277.25Z" fill="white"/>
<path d="M121.695 266.498C120.513 267.678 119.455 269.04 118.108 269.981C116.397 271.169 116.86 272.745 116.942 274.239C117.017 275.683 118.141 276.136 119.422 276.153C121.274 276.186 123.134 276.219 124.986 276.153C126.275 276.103 126.804 276.508 126.829 277.886C126.903 281.12 126.978 281.12 123.696 281.12C114.429 281.12 105.154 281.12 95.8878 281.12C92.8292 281.12 92.8292 281.104 92.8292 277.96C92.8292 274.461 92.854 270.971 92.8209 267.472C92.8044 266.309 93.1103 265.714 94.4329 265.723C103.154 265.764 111.875 265.756 120.596 265.764C120.794 265.764 120.993 265.855 121.191 265.896C121.348 266.102 121.522 266.3 121.695 266.498Z" fill="white"/>
<path d="M280.749 280.988C269.565 280.988 258.612 280.988 247.345 280.988C247.345 279.833 247.394 278.769 247.328 277.704C247.262 276.532 247.766 276.128 248.907 276.161C250.759 276.211 252.619 276.169 254.47 276.169C255.727 276.169 256.983 275.897 257.115 274.461C257.256 272.91 257.735 271.243 255.975 269.997C254.635 269.04 253.577 267.687 252.395 266.507C252.536 266.308 252.676 266.11 252.809 265.912C253.387 265.855 253.966 265.756 254.545 265.756C262.58 265.747 270.614 265.78 278.649 265.714C280.22 265.698 280.832 266.094 280.79 267.769C280.683 272.126 280.749 276.499 280.749 280.988Z" fill="white"/>
<path d="M158.961 287.004C158.961 287.581 158.977 288.159 158.961 288.737C158.919 290.37 159.614 291.427 161.333 291.435C162.59 291.443 162.788 292.062 162.788 293.11C162.78 306.205 162.796 319.309 162.804 332.405C162.804 332.677 162.895 333.09 162.755 333.205C160.333 335.243 161.333 338.098 161.035 340.788C159.481 340.788 158.01 340.788 156.291 340.788C156.291 339.575 156.464 338.395 156.241 337.29C156.001 336.11 155.365 335.012 154.968 333.849C154.753 333.23 154.571 332.57 154.563 331.926C154.538 319.103 154.555 306.28 154.53 293.457C154.53 292.202 154.629 291.361 156.257 291.402C157.638 291.435 158.316 290.478 158.382 289.116C158.415 288.398 158.473 287.689 158.522 286.971C158.663 286.995 158.812 287.004 158.961 287.004Z" fill="white"/>
<path d="M217.784 340.862C216.172 340.862 214.759 340.862 213.023 340.862C213.023 339.616 213.188 338.445 212.981 337.347C212.75 336.159 212.146 335.045 211.75 333.882C211.56 333.329 211.345 332.735 211.345 332.165C211.32 319.268 211.336 306.37 211.312 293.465C211.312 292.194 211.46 291.393 213.047 291.41C214.436 291.418 215.089 290.436 215.114 289.083C215.131 288.382 215.114 287.68 215.428 286.863C215.718 289.364 215.445 292.169 219.413 291.41C219.462 292.425 219.528 293.159 219.528 293.894C219.537 306.585 219.553 319.276 219.504 331.975C219.504 332.743 218.941 333.51 218.652 334.278C218.363 335.02 217.908 335.738 217.834 336.497C217.685 337.867 217.784 339.245 217.784 340.862Z" fill="white"/>
<path d="M123.63 355.51C123.142 352.869 123.167 352.82 125.647 352.82C164.582 352.82 203.516 352.82 242.459 352.82C244.939 352.82 247.411 352.795 249.891 352.836C250.767 352.853 251.9 352.448 251.991 354.041C251.991 356.426 246.791 355.518 243.823 355.518C204.955 355.518 166.086 355.518 127.218 355.518C126.002 355.51 124.779 355.51 123.63 355.51Z" fill="white"/>
<path d="M198.523 340.863C197.06 340.863 195.845 340.863 194.357 340.863C194.357 339.633 194.531 338.461 194.307 337.364C194.076 336.176 193.472 335.062 193.051 333.907C192.869 333.42 192.613 332.916 192.613 332.421C192.588 319.243 192.596 306.057 192.604 292.879C192.604 292.483 192.728 292.095 192.778 291.823C194.051 291.435 195.2 291.08 196.481 290.684C197.432 291.006 198.631 291.402 200.226 291.938C200.226 292.689 200.226 293.696 200.226 294.694C200.226 307.121 200.243 319.549 200.193 331.976C200.193 332.743 199.631 333.502 199.333 334.27C199.052 335.004 198.614 335.73 198.548 336.489C198.432 337.892 198.523 339.32 198.523 340.863Z" fill="white"/>
<path d="M174.105 291.823C175.394 291.418 176.543 291.064 177.767 290.684C178.783 291.014 179.974 291.402 181.503 291.897C181.503 292.722 181.503 293.729 181.503 294.736C181.503 307.155 181.519 319.565 181.47 331.984C181.47 332.751 180.908 333.519 180.618 334.286C180.337 335.029 179.883 335.747 179.808 336.506C179.676 337.859 179.767 339.237 179.767 340.788C178.428 340.788 177.18 340.788 175.626 340.788C175.626 339.592 175.799 338.412 175.576 337.315C175.344 336.135 174.741 335.021 174.311 333.874C174.154 333.444 173.931 332.999 173.931 332.562C173.923 319.111 173.939 305.669 173.956 292.219C173.964 292.103 174.055 291.98 174.105 291.823Z" fill="white"/>
<path d="M223.207 258.007C217.991 258.007 212.923 258.007 207.658 258.007C207.658 250.927 207.658 243.913 207.658 236.743C212.766 236.743 217.883 236.743 223.207 236.743C223.207 243.732 223.207 250.746 223.207 258.007Z" fill="white"/>
<path d="M166.524 258.016C161.242 258.016 156.167 258.016 150.884 258.016C150.884 250.944 150.884 243.922 150.884 236.743C156.034 236.743 161.217 236.743 166.524 236.743C166.524 243.814 166.524 250.795 166.524 258.016Z" fill="white"/>
<path d="M244.89 345.203C244.89 346.037 244.89 346.754 244.89 347.613C206.674 347.613 168.549 347.613 130.301 347.613C130.301 346.771 130.301 346.053 130.301 345.203C168.516 345.203 206.641 345.203 244.89 345.203Z" fill="white"/>
<path d="M213.502 221.427C214.064 224.893 214.064 224.893 210.964 224.893C194.952 224.893 178.94 224.901 162.928 224.86C161.862 224.86 160.291 225.438 160.275 223.309C160.258 221.931 160.63 221.37 162.127 221.394C167.624 221.477 173.121 221.427 178.618 221.427C189.48 221.427 200.334 221.427 211.196 221.427C211.94 221.427 212.684 221.427 213.502 221.427Z" fill="white"/>
<path d="M203.119 257.999C200.689 257.999 198.383 257.999 195.713 257.999C198.755 249.425 195.225 242.874 189.207 236.792C193.993 236.792 198.449 236.792 203.119 236.792C203.119 243.748 203.119 250.754 203.119 257.999Z" fill="white"/>
<path d="M170.897 257.916C170.897 250.787 170.897 243.823 170.897 236.726C175.501 236.726 179.998 236.726 184.842 236.726C178.932 242.733 175.402 249.285 178.337 257.916C175.807 257.916 173.476 257.916 170.897 257.916Z" fill="white"/>
<path d="M141.039 335.037C140.659 333.907 139.973 332.809 139.973 331.704C139.898 319.029 139.964 306.354 139.882 293.68C139.865 291.798 140.485 291.113 142.221 291.518C142.701 291.633 143.287 292.219 143.42 292.698C143.626 293.465 143.502 294.331 143.502 295.148C143.502 307.278 143.486 319.4 143.535 331.53C143.535 333.04 143.345 334.245 141.039 335.037Z" fill="white"/>
<path d="M234.209 291.715C234.209 293.011 234.209 294.232 234.209 295.453C234.209 307.526 234.234 319.598 234.16 331.67C234.151 332.776 233.498 333.882 233.118 335.062C231.068 334.344 230.622 333.32 230.63 331.744C230.688 319.259 230.663 306.775 230.663 294.29C230.663 291.228 230.671 291.22 234.209 291.715Z" fill="white"/>
<path d="M209.683 185.846C194.597 185.846 179.502 185.846 164.416 185.846C165.821 184.295 167.169 182.644 169.459 182.636C181.147 182.611 192.836 182.52 204.525 182.735C206.351 182.768 208.154 184.253 209.972 185.07C209.881 185.326 209.782 185.582 209.683 185.846Z" fill="white"/>
<path d="M187.033 240.662C190.819 244.573 193.382 248.526 192.539 253.923C192.316 255.334 191.853 256.151 190.191 256.043C188.067 255.903 185.934 255.936 183.809 256.027C182.305 256.093 181.784 255.4 181.569 254.022C180.693 248.551 183.28 244.565 187.033 240.662Z" fill="white"/>
<path d="M135.616 333.725C134.715 333.725 134.037 333.725 133.169 333.725C133.169 320.2 133.169 306.742 133.169 293.102C133.905 293.102 134.673 293.102 135.616 293.102C135.616 306.593 135.616 320.068 135.616 333.725Z" fill="white"/>
<path d="M169.616 333.725C168.698 333.725 168.02 333.725 167.144 333.725C167.144 320.192 167.144 306.733 167.144 293.102C167.905 293.102 168.682 293.102 169.616 293.102C169.616 306.601 169.616 320.068 169.616 333.725Z" fill="white"/>
<path d="M240.947 333.667C240.029 333.667 239.302 333.667 238.458 333.667C238.458 320.068 238.458 306.601 238.458 293.027C239.318 293.027 240.046 293.027 240.947 293.027C240.947 306.577 240.947 320.043 240.947 333.667Z" fill="white"/>
<path d="M150.264 333.741C149.38 333.741 148.71 333.741 147.834 333.741C147.834 320.217 147.834 306.75 147.834 293.11C148.561 293.11 149.33 293.11 150.264 293.11C150.264 306.601 150.264 320.068 150.264 333.741Z" fill="white"/>
<path d="M206.98 333.75C206.079 333.75 205.401 333.75 204.533 333.75C204.533 320.217 204.533 306.75 204.533 293.102C205.277 293.102 206.046 293.102 206.98 293.102C206.98 306.601 206.98 320.085 206.98 333.75Z" fill="white"/>
<path d="M223.91 293.019C224.72 293.019 225.447 293.019 226.357 293.019C226.357 306.593 226.357 320.068 226.357 333.683C225.571 333.683 224.844 333.683 223.91 333.683C223.91 320.217 223.91 306.75 223.91 293.019Z" fill="white"/>
<path d="M181.511 232.377C170.781 232.452 160.052 232.46 149.322 232.468C148.537 232.468 147.743 232.27 146.528 232.097C148.181 230.975 224.563 230.719 227.158 232.014C226.522 232.171 225.885 232.452 225.249 232.452C219.611 232.485 213.965 232.476 208.327 232.476C201.177 232.476 194.018 232.419 186.868 232.509C185.793 232.526 182.867 232.369 181.511 232.377Z" fill="white"/>
<path d="M217.875 215.783C217.429 216.155 217.032 216.609 216.528 216.856C216.197 217.021 215.718 216.897 215.304 216.897C196.399 216.897 177.502 216.906 158.597 216.889C157.605 216.889 156.2 217.335 156.406 215.321C176.791 215.321 197.168 215.321 217.545 215.321C217.652 215.478 217.768 215.635 217.875 215.783Z" fill="white"/>
<path d="M183.379 210.568C182.28 205.559 183.9 201.557 186.983 197.663C190.339 201.516 191.712 205.634 190.728 210.568C188.289 210.568 185.909 210.568 183.379 210.568Z" fill="white"/>
<path d="M248.494 259.625C252.321 259.625 256.148 259.625 259.968 259.625C266.109 259.633 272.243 259.633 278.385 259.649C278.931 259.649 279.509 259.583 280.022 259.732C280.311 259.814 280.7 260.293 280.667 260.549C280.617 260.912 280.303 261.366 279.972 261.547C279.65 261.72 279.17 261.621 278.757 261.621C269.507 261.621 260.257 261.654 251.007 261.572C250.064 261.564 249.122 260.887 248.18 260.524C248.279 260.219 248.386 259.922 248.494 259.625Z" fill="white"/>
<path d="M125.308 260.425C124.597 260.821 123.886 261.555 123.167 261.564C113.553 261.638 103.939 261.63 94.3254 261.572C93.8294 261.572 93.3417 260.969 92.8457 260.648C93.259 260.318 93.6641 259.69 94.0774 259.69C104.369 259.633 114.661 259.649 124.952 259.649C125.076 259.905 125.192 260.169 125.308 260.425Z" fill="white"/>
<path d="M194.217 168.435C194.266 169.277 194.49 170.127 194.291 170.869C194.151 171.397 193.473 172.157 193.01 172.173C189.092 172.272 185.173 172.19 181.263 172.231C180.065 172.239 179.668 171.727 179.734 170.622C179.775 169.953 179.742 169.277 179.742 168.443C184.644 168.435 189.331 168.435 194.217 168.435Z" fill="white"/>
<path d="M238.243 252.85C238.26 256.712 238.07 256.91 234.209 256.316C233.755 256.25 233.093 255.565 233.052 255.119C232.912 253.56 233.036 251.983 232.978 250.416C232.945 249.326 233.432 249.005 234.457 249.021C239.062 249.112 238.062 248.543 238.243 252.85Z" fill="white"/>
<path d="M140.923 248.765C140.923 251.604 140.923 253.889 140.923 256.571C139.154 256.332 136.443 256.489 136.236 255.853C135.624 253.931 135.608 251.587 136.195 249.656C136.401 248.996 139.063 249.079 140.923 248.765Z" fill="white"/>
<path d="M176.394 177.677C178.395 177.223 180.37 176.53 182.395 176.373C185.33 176.15 188.306 176.158 191.24 176.373C193.406 176.53 195.539 177.182 197.68 177.611C197.639 177.858 197.597 178.106 197.564 178.353C190.563 178.353 183.569 178.353 176.568 178.353C176.51 178.131 176.452 177.9 176.394 177.677Z" fill="white"/>
<path d="M265.109 255.622C264.026 255.474 262.852 255.3 261.703 255.144C260.505 252.932 261.794 251.076 262.431 249.169C262.489 249.004 263.687 248.905 263.952 249.178C265.721 250.944 266.366 253.023 265.109 255.622Z" fill="white"/>
<path d="M110.767 248.674C111.354 250.737 111.941 252.8 112.611 255.144C110.784 255.144 109.593 255.144 108.296 255.144C107.766 252.619 108.486 250.564 109.891 248.691C110.189 248.683 110.478 248.683 110.767 248.674Z" fill="white"/>
<path d="M118.174 312.122C118.174 315.043 118.174 317.766 118.174 320.481C120.637 321.562 122.018 325.696 120.571 328.04C120.191 328.658 119.133 329.195 118.38 329.203C112.263 329.294 106.146 329.261 100.029 329.253C98.3757 329.253 97.4581 328.452 97.4747 326.728C97.4829 325.564 97.3176 324.368 97.5325 323.237C97.6731 322.47 98.2104 321.306 98.7808 321.166C100.294 320.803 100.302 319.887 100.285 318.732C100.244 316.561 100.277 314.383 100.277 312.262C95.4659 311.429 95.0113 310.241 98.0037 306.552C99.2189 305.05 100.748 303.804 102.071 302.385C102.393 302.03 102.592 301.452 102.625 300.966C102.707 299.876 102.443 298.713 102.716 297.69C103.129 296.147 103.542 294.389 104.567 293.292C105.898 291.856 107.593 290.923 107.328 288.522C107.279 288.085 108.667 287.028 109.32 287.086C109.998 287.144 111.139 288.233 111.106 288.827C111.007 290.833 112.032 291.847 113.47 292.937C115.586 294.546 115.917 296.955 115.743 299.447C115.636 300.982 115.892 302.03 117.455 303.103C119.29 304.374 120.695 306.42 121.943 308.343C123.026 310.018 121.861 311.792 119.844 311.99C119.356 312.056 118.885 312.072 118.174 312.122ZM113.958 312.023C110.932 312.023 108.262 311.965 105.601 312.081C105.195 312.097 104.501 312.856 104.476 313.302C104.352 315.348 104.336 317.411 104.476 319.45C104.509 319.936 105.262 320.753 105.716 320.778C108.039 320.927 110.379 320.927 112.701 320.819C113.131 320.803 113.875 320.085 113.892 319.672C114.016 317.238 113.958 314.787 113.958 312.023ZM111.842 298.375C111.858 298.036 111.875 297.698 111.891 297.36C111.023 296.708 110.23 295.709 109.263 295.487C107.849 295.156 106.931 296.138 106.882 297.607C106.832 299.051 107.634 300.149 109.064 299.984C110.031 299.876 110.916 298.944 111.842 298.375ZM103.468 306.626C103.468 306.709 103.468 306.791 103.468 306.874C107.221 306.874 110.965 306.874 114.718 306.874C114.718 306.791 114.718 306.709 114.718 306.626C110.974 306.626 107.221 306.626 103.468 306.626Z" fill="#404040"/>
<path d="M255.462 312.304C250.635 311.388 250.197 310.241 253.197 306.585C254.421 305.092 255.942 303.837 257.24 302.401C257.595 302.005 257.777 301.345 257.827 300.792C257.934 299.563 257.686 298.276 257.984 297.112C258.323 295.767 258.802 294.241 259.736 293.316C261.141 291.93 262.77 290.948 262.489 288.547C262.439 288.11 263.828 287.062 264.489 287.111C265.159 287.161 266.291 288.242 266.275 288.844C266.225 290.816 267.192 291.864 268.656 292.953C270.639 294.43 271.069 296.683 270.904 299.06C270.78 300.792 270.929 302.088 272.789 303.251C274.55 304.349 275.798 306.387 277.038 308.169C278.203 309.853 277.079 311.825 275.021 312.031C274.549 312.081 274.07 312.097 273.268 312.155C273.268 314.82 273.252 317.461 273.293 320.101C273.293 320.349 273.64 320.77 273.88 320.803C276.029 321.158 276.062 322.734 276.087 324.384C276.145 329.187 276.062 329.286 271.16 329.286C266.076 329.286 260.993 329.302 255.909 329.277C253.214 329.269 252.693 328.708 252.677 325.977C252.668 325.019 252.553 324.029 252.726 323.105C252.85 322.437 253.305 321.372 253.751 321.298C255.81 320.96 255.454 319.516 255.462 318.187C255.462 316.19 255.462 314.218 255.462 312.304ZM269.061 312.023C266.167 312.023 263.506 311.982 260.852 312.073C260.447 312.089 259.728 312.7 259.711 313.063C259.612 315.571 259.662 318.08 259.662 320.712C262.952 320.712 265.977 320.712 269.069 320.712C269.061 317.807 269.061 315.084 269.061 312.023ZM263.861 300.421C264.192 300.429 264.522 300.429 264.861 300.438C265.49 299.546 266.498 298.713 266.647 297.748C266.853 296.411 265.911 295.429 264.398 295.421C262.902 295.412 261.902 296.295 262.125 297.698C262.282 298.672 263.249 299.522 263.861 300.421ZM258.653 306.618C258.653 306.709 258.653 306.8 258.653 306.882C262.423 306.882 266.184 306.882 269.953 306.882C269.953 306.791 269.953 306.701 269.953 306.618C266.184 306.618 262.414 306.618 258.653 306.618Z" fill="#404040"/>
<path d="M113.958 312.023C113.958 314.787 114.016 317.238 113.9 319.68C113.883 320.101 113.139 320.811 112.71 320.827C110.387 320.926 108.047 320.935 105.725 320.786C105.262 320.753 104.518 319.944 104.485 319.458C104.344 317.411 104.361 315.348 104.485 313.31C104.509 312.864 105.195 312.105 105.609 312.089C108.262 311.973 110.924 312.023 113.958 312.023Z" fill="white"/>
<path d="M111.842 298.374C110.916 298.944 110.031 299.868 109.056 299.983C107.634 300.149 106.824 299.059 106.874 297.607C106.923 296.13 107.841 295.156 109.254 295.486C110.222 295.709 111.015 296.708 111.883 297.359C111.875 297.706 111.858 298.044 111.842 298.374Z" fill="white"/>
<path d="M109.097 306.923C113.489 306.923 117.05 306.846 117.05 306.75C117.05 306.654 113.489 306.577 109.097 306.577C104.705 306.577 101.145 306.654 101.145 306.75C101.145 306.846 104.705 306.923 109.097 306.923Z" fill="white"/>
<path d="M269.061 312.023C269.061 315.084 269.061 317.807 269.061 320.712C265.977 320.712 262.944 320.712 259.654 320.712C259.654 318.08 259.604 315.571 259.703 313.063C259.72 312.7 260.439 312.089 260.844 312.073C263.506 311.982 266.167 312.023 269.061 312.023Z" fill="white"/>
<path d="M263.861 300.421C263.257 299.513 262.282 298.672 262.125 297.69C261.893 296.287 262.902 295.404 264.398 295.412C265.911 295.42 266.853 296.402 266.647 297.739C266.498 298.705 265.489 299.538 264.861 300.429C264.522 300.437 264.191 300.429 263.861 300.421Z" fill="white"/>
<path d="M264.299 306.94C268.714 306.94 272.293 306.855 272.293 306.75C272.293 306.645 268.714 306.56 264.299 306.56C259.885 306.56 256.306 306.645 256.306 306.75C256.306 306.855 259.885 306.94 264.299 306.94Z" fill="white"/>
</g>
<path d="M111.68 90.48C112.48 90.48 113.187 90.56 113.8 90.72C114.44 90.88 114.987 91.0933 115.44 91.36C115.893 91.6267 116.267 91.92 116.56 92.24C116.88 92.56 117.147 92.8933 117.36 93.24C117.84 94.0667 118.107 94.9867 118.16 96V97.96C118.16 99.3467 117.853 100.413 117.24 101.16C116.627 101.88 115.96 102.413 115.24 102.76C114.36 103.16 113.387 103.387 112.32 103.44C113.787 103.44 114.907 103.733 115.68 104.32C116.48 104.88 117.067 105.507 117.44 106.2C117.867 107.027 118.107 107.947 118.16 108.96V113.8C118.107 114.787 117.893 115.653 117.52 116.4C117.2 117.067 116.68 117.667 115.96 118.2C115.267 118.733 114.267 119 112.96 119H100V118.36H102.6V91.12H100V90.48H111.68ZM110.36 91.12H107.76V103.12H110.36C110.84 103.093 111.267 102.987 111.64 102.8C111.96 102.64 112.253 102.387 112.52 102.04C112.813 101.693 112.96 101.187 112.96 100.52V93.72C112.96 93.08 112.813 92.5867 112.52 92.24C112.253 91.8667 111.96 91.6 111.64 91.44C111.267 91.2533 110.84 91.1467 110.36 91.12ZM110.36 103.76H107.76V118.36H110.36C110.84 118.333 111.267 118.227 111.64 118.04C111.96 117.88 112.253 117.627 112.52 117.28C112.813 116.933 112.96 116.427 112.96 115.76V106.36C112.933 105.88 112.827 105.453 112.64 105.08C112.48 104.76 112.213 104.467 111.84 104.2C111.493 103.907 111 103.76 110.36 103.76ZM138.112 108V108.64H132.912H127.712V116.12C127.738 116.6 127.845 117.027 128.032 117.4C128.192 117.72 128.445 118.013 128.792 118.28C129.138 118.547 129.645 118.68 130.312 118.68C130.952 118.68 131.445 118.56 131.792 118.32C132.165 118.053 132.432 117.76 132.592 117.44C132.778 117.067 132.885 116.64 132.912 116.16V113.8H138.112C138.058 114.84 137.792 115.76 137.312 116.56C136.912 117.253 136.272 117.893 135.392 118.48C134.512 119.04 133.258 119.32 131.632 119.32H129.032C127.405 119.32 126.152 119.04 125.272 118.48C124.392 117.893 123.752 117.253 123.352 116.56C122.872 115.76 122.605 114.84 122.552 113.8V103.44C122.605 102.427 122.872 101.52 123.352 100.72C123.538 100.373 123.792 100.04 124.112 99.72C124.432 99.4 124.818 99.1067 125.272 98.84C125.725 98.5733 126.258 98.36 126.872 98.2C127.512 98.04 128.232 97.96 129.032 97.96H131.632C132.432 97.96 133.138 98.04 133.752 98.2C134.392 98.36 134.938 98.5733 135.392 98.84C135.845 99.1067 136.218 99.4 136.512 99.72C136.832 100.04 137.098 100.373 137.312 100.72C137.792 101.52 138.058 102.427 138.112 103.44V108ZM132.912 108V103.44V103.12V101.12C132.885 100.667 132.778 100.253 132.592 99.88C132.432 99.56 132.165 99.2667 131.792 99C131.445 98.7333 130.952 98.6 130.312 98.6C129.645 98.6 129.138 98.7333 128.792 99C128.445 99.2667 128.192 99.56 128.032 99.88C127.845 100.253 127.738 100.68 127.712 101.16V108H132.912ZM161.033 118.36V119H158.473H153.593H153.273V101.52C153.246 101.04 153.139 100.613 152.953 100.24C152.793 99.92 152.526 99.6267 152.153 99.36C151.806 99.0667 151.313 98.92 150.673 98.92C150.006 98.92 149.499 99.0667 149.153 99.36C148.806 99.6267 148.553 99.92 148.393 100.24C148.206 100.613 148.099 101.04 148.073 101.52V118.36H150.673V119H148.073H142.913H140.312V118.36H142.913V98.92H140.312V98.28H142.913H148.073V99.72C148.579 99 149.193 98.5333 149.913 98.32C150.633 98.08 151.326 97.96 151.993 97.96H152.633C154.099 97.96 155.219 98.2533 155.993 98.84C156.793 99.4 157.379 100.027 157.753 100.72C158.179 101.52 158.419 102.427 158.473 103.44V118.36H161.033ZM181.736 98.92H179.176V105.4V105.72V108.64C179.122 109.68 178.856 110.6 178.376 111.4C177.976 112.093 177.336 112.733 176.456 113.32C175.576 113.88 174.322 114.16 172.696 114.16H171.376C170.869 114.187 170.429 114.28 170.056 114.44C169.736 114.573 169.442 114.8 169.176 115.12C168.909 115.413 168.776 115.84 168.776 116.4C168.776 116.987 168.909 117.44 169.176 117.76C169.442 118.053 169.736 118.267 170.056 118.4C170.429 118.56 170.869 118.653 171.376 118.68H172.696C173.976 118.68 175.029 118.84 175.856 119.16C176.709 119.507 177.376 119.933 177.856 120.44C178.362 120.973 178.709 121.573 178.896 122.24C179.082 122.907 179.176 123.56 179.176 124.2C179.176 124.84 179.082 125.48 178.896 126.12C178.709 126.787 178.362 127.373 177.856 127.88C177.376 128.413 176.709 128.84 175.856 129.16C175.029 129.507 173.976 129.68 172.696 129.68H171.376H170.096C168.789 129.68 167.709 129.507 166.856 129.16C166.029 128.84 165.376 128.413 164.896 127.88C164.416 127.373 164.082 126.787 163.896 126.12C163.709 125.48 163.616 124.84 163.616 124.2C163.616 123.267 163.816 122.347 164.216 121.44C164.616 120.533 165.389 119.827 166.536 119.32C166.482 119.32 166.296 119.293 165.976 119.24C165.682 119.213 165.349 119.107 164.976 118.92C164.629 118.733 164.309 118.453 164.016 118.08C163.749 117.68 163.616 117.12 163.616 116.4C163.616 115.68 163.762 115.12 164.056 114.72C164.349 114.32 164.682 114.027 165.056 113.84C165.482 113.627 165.976 113.507 166.536 113.48H166.736C165.962 113.107 165.362 112.653 164.936 112.12C164.536 111.587 164.229 111.053 164.016 110.52C163.776 109.907 163.642 109.28 163.616 108.64V105.72V105.4V103.12C163.669 102.16 163.909 101.307 164.336 100.56C164.709 99.92 165.282 99.3333 166.056 98.8C166.856 98.24 167.989 97.96 169.456 97.96H170.096C170.736 97.96 171.416 98.08 172.136 98.32C172.882 98.5333 173.496 99 173.976 99.72V98.92V98.28H179.176H181.736V98.92ZM173.976 121.84C173.949 121.387 173.842 120.973 173.656 120.6C173.496 120.28 173.229 119.987 172.856 119.72C172.509 119.453 172.016 119.32 171.376 119.32C170.709 119.32 170.202 119.453 169.856 119.72C169.509 119.987 169.256 120.28 169.096 120.6C168.909 120.973 168.802 121.4 168.776 121.88V126.48C168.802 126.96 168.909 127.387 169.096 127.76C169.256 128.08 169.509 128.373 169.856 128.64C170.202 128.907 170.709 129.04 171.376 129.04C172.016 129.04 172.509 128.907 172.856 128.64C173.229 128.4 173.496 128.12 173.656 127.8C173.842 127.427 173.949 127 173.976 126.52V121.84ZM173.976 105.72V101.52C173.949 101.04 173.842 100.613 173.656 100.24C173.496 99.92 173.229 99.6267 172.856 99.36C172.509 99.0667 172.016 98.92 171.376 98.92C170.709 98.92 170.202 99.0667 169.856 99.36C169.509 99.6267 169.256 99.92 169.096 100.24C168.909 100.613 168.802 101.04 168.776 101.52V105.4V110.92C168.802 111.4 168.909 111.827 169.096 112.2C169.256 112.52 169.509 112.813 169.856 113.08C170.202 113.347 170.709 113.48 171.376 113.48C172.016 113.48 172.509 113.36 172.856 113.12C173.229 112.853 173.496 112.56 173.656 112.24C173.842 111.867 173.949 111.44 173.976 110.96V105.72ZM202.279 118.36V119H197.079C196.652 119 196.292 118.92 195.999 118.76C195.732 118.6 195.505 118.413 195.319 118.2C195.105 117.96 194.932 117.693 194.799 117.4C194.559 117.8 194.265 118.133 193.919 118.4C193.572 118.64 193.199 118.827 192.799 118.96C192.425 119.093 192.039 119.187 191.639 119.24C191.265 119.293 190.919 119.32 190.599 119.32H189.959C188.492 119.32 187.359 119.04 186.559 118.48C185.759 117.893 185.185 117.253 184.839 116.56C184.412 115.76 184.172 114.84 184.119 113.8V111.24C184.119 109.933 184.385 108.933 184.919 108.24C185.452 107.52 186.052 107 186.719 106.68C187.465 106.307 188.332 106.093 189.319 106.04C189.959 106.04 190.585 106.027 191.199 106C191.812 105.973 192.359 105.88 192.839 105.72C193.345 105.56 193.745 105.307 194.039 104.96C194.332 104.587 194.479 104.08 194.479 103.44V101.12C194.452 100.667 194.345 100.253 194.159 99.88C193.999 99.56 193.732 99.2667 193.359 99C193.012 98.7333 192.519 98.6 191.879 98.6C191.239 98.6 190.745 98.7333 190.399 99C190.052 99.2667 189.799 99.56 189.639 99.88C189.452 100.253 189.345 100.68 189.319 101.16V103.44H184.119C184.172 102.427 184.439 101.52 184.919 100.72C185.105 100.373 185.359 100.04 185.679 99.72C185.999 99.4 186.385 99.1067 186.839 98.84C187.292 98.5733 187.825 98.36 188.439 98.2C189.079 98.04 189.799 97.96 190.599 97.96H193.199C193.999 97.96 194.705 98.04 195.319 98.2C195.959 98.36 196.505 98.5733 196.959 98.84C197.412 99.1067 197.785 99.4 198.079 99.72C198.399 100.04 198.665 100.373 198.879 100.72C199.359 101.52 199.625 102.427 199.679 103.44V117.04C199.679 117.307 199.732 117.533 199.839 117.72C199.919 117.88 200.039 118.027 200.199 118.16C200.385 118.293 200.639 118.36 200.959 118.36H202.279ZM194.479 105.36C194.159 105.787 193.812 106.12 193.439 106.36C193.065 106.573 192.679 106.76 192.279 106.92C191.905 107.053 191.532 107.2 191.159 107.36C190.812 107.493 190.492 107.707 190.199 108C189.932 108.293 189.719 108.693 189.559 109.2C189.399 109.707 189.319 110.387 189.319 111.24V115.76C189.345 116.267 189.452 116.707 189.639 117.08C189.799 117.4 190.052 117.693 190.399 117.96C190.745 118.227 191.239 118.36 191.879 118.36C192.519 118.36 193.012 118.227 193.359 117.96C193.732 117.693 193.999 117.4 194.159 117.08C194.345 116.707 194.452 116.267 194.479 115.76V105.36ZM210.066 115.76C210.092 116.267 210.199 116.707 210.386 117.08C210.546 117.4 210.799 117.693 211.146 117.96C211.492 118.227 211.999 118.36 212.666 118.36V119C212.399 119.08 212.119 119.147 211.826 119.2C211.586 119.253 211.306 119.293 210.986 119.32C210.692 119.347 210.386 119.36 210.066 119.36C208.759 119.36 207.746 119.08 207.026 118.52C206.332 117.933 205.826 117.293 205.506 116.6C205.132 115.773 204.919 114.84 204.866 113.8V88.56H202.266V87.88H204.866H210.066V88.56V113.8V115.76ZM230.816 98.92V118.36H233.376V119H230.816H225.616V118.36V117.56C225.136 118.28 224.523 118.76 223.776 119C223.056 119.213 222.376 119.32 221.736 119.32H221.096C219.63 119.32 218.496 119.04 217.696 118.48C216.896 117.893 216.323 117.253 215.976 116.56C215.55 115.76 215.31 114.84 215.256 113.8V98.92H212.656V98.28H215.256H220.416V98.92V115.76C220.443 116.267 220.55 116.707 220.736 117.08C220.896 117.4 221.15 117.693 221.496 117.96C221.843 118.227 222.35 118.36 223.016 118.36C223.656 118.36 224.15 118.227 224.496 117.96C224.87 117.693 225.136 117.4 225.296 117.08C225.483 116.707 225.59 116.267 225.616 115.76V98.92H223.016V98.28H233.376V98.92H230.816ZM246.319 103.44V101.52C246.293 101.04 246.186 100.613 245.999 100.24C245.839 99.92 245.573 99.6267 245.199 99.36C244.853 99.0667 244.359 98.92 243.719 98.92C243.053 98.92 242.546 99.0667 242.199 99.36C241.853 99.6267 241.599 99.92 241.439 100.24C241.253 100.613 241.146 101.04 241.119 101.52V118.36H243.719V119H233.399V118.36H235.959V98.92H233.359V98.28H241.119V99.72C241.626 99 242.239 98.5333 242.959 98.32C243.679 98.08 244.373 97.96 245.039 97.96H245.679C247.146 97.96 248.266 98.2533 249.039 98.84C249.839 99.4 250.426 100.027 250.799 100.72C251.226 101.52 251.466 102.427 251.519 103.44H246.319ZM270.465 98.92V118.36H273.025V119H270.465H265.265V118.36V117.56C264.785 118.28 264.171 118.76 263.425 119C262.705 119.213 262.025 119.32 261.385 119.32H260.745C259.278 119.32 258.145 119.04 257.345 118.48C256.545 117.893 255.971 117.253 255.625 116.56C255.198 115.76 254.958 114.84 254.905 113.8V98.92H252.305V98.28H254.905H260.065V98.92V115.76C260.091 116.267 260.198 116.707 260.385 117.08C260.545 117.4 260.798 117.693 261.145 117.96C261.491 118.227 261.998 118.36 262.665 118.36C263.305 118.36 263.798 118.227 264.145 117.96C264.518 117.693 264.785 117.4 264.945 117.08C265.131 116.707 265.238 116.267 265.265 115.76V98.92H262.665V98.28H273.025V98.92H270.465Z" fill="#404040"/>
<defs>
<clipPath id="clip0">
<rect width="282" height="230" fill="white" transform="translate(46 145)"/>
</clipPath>
</defs>
</svg>
