<svg width="20" height="20" viewBox="0 0 20 20" fill="none" xmlns="http://www.w3.org/2000/svg">
<path opacity="0.6" fill-rule="evenodd" clip-rule="evenodd" d="M10.0001 0C8.61944 0 7.50015 1.11929 7.50015 2.5V3.81787C5.82891 4.49432 4.49442 5.82878 3.81793 7.5H2.5C1.11929 7.5 0 8.61929 0 10C0 11.3807 1.11929 12.5 2.5 12.5H3.81793C4.49442 14.1712 5.82891 15.5057 7.50015 16.1821V17.5C7.50015 18.8807 8.61944 20 10.0001 20C11.3809 20 12.5001 18.8807 12.5001 17.5V16.182C14.1712 15.5055 15.5056 14.1711 16.1821 12.5H17.5001C18.8809 12.5 20.0001 11.3807 20.0001 10C20.0001 8.61929 18.8809 7.5 17.5001 7.5H16.1821C15.5056 5.82888 14.1712 4.49448 12.5001 3.81799V2.5C12.5001 1.11929 11.3809 0 10.0001 0ZM10.0003 13.3333C11.8412 13.3333 13.3336 11.841 13.3336 10C13.3336 8.15905 11.8412 6.66667 10.0003 6.66667C8.15935 6.66667 6.66696 8.15905 6.66696 10C6.66696 11.841 8.15935 13.3333 10.0003 13.3333Z" fill="#404040"/>
</svg>
